<?xml version="1.0" standalone="no"?>
<!DOCTYPE svg PUBLIC "-//W3C//DTD SVG 20010904//EN"
 "http://www.w3.org/TR/2001/REC-SVG-20010904/DTD/svg10.dtd">
<svg version="1.0" xmlns="http://www.w3.org/2000/svg"
 width="1222.000000pt" height="1222.000000pt" viewBox="0 0 1222.000000 1222.000000"
 preserveAspectRatio="xMidYMid meet">

<g transform="translate(0.000000,1222.000000) scale(0.100000,-0.100000)"
fill="#000000" stroke="none">
<path d="M5765 11990 c-3 -6 4 -10 18 -10 13 0 39 -10 58 -23 l34 -23 3 -253
c2 -179 -1 -258 -9 -267 -6 -8 -26 -18 -43 -23 -23 -7 -3 -9 79 -9 82 0 102 2
79 9 -57 16 -59 23 -63 251 -2 136 0 208 7 208 6 0 99 -108 206 -240 108 -132
201 -240 206 -240 6 0 10 106 10 283 0 314 2 327 61 327 18 0 28 4 24 10 -3 6
-50 10 -105 10 -55 0 -102 -4 -105 -10 -4 -6 6 -10 24 -10 56 0 61 -20 61
-245 l-1 -200 -22 26 c-12 14 -98 118 -190 232 l-169 207 -78 0 c-43 0 -82 -4
-85 -10z"/>
<path d="M4490 10286 l0 -864 -86 -47 c-48 -25 -90 -43 -94 -38 -3 4 -51 78
-106 162 -164 256 -204 316 -204 310 0 -3 58 -120 130 -260 l129 -254 -107
-68 -106 -67 -438 0 -438 0 -251 228 c-138 125 -265 238 -283 251 -30 24 -30
23 5 -15 20 -21 121 -133 225 -249 l188 -210 -112 -3 -112 -3 0 -534 c0 -294
-3 -535 -6 -535 -4 0 -86 41 -182 91 -96 49 -176 89 -177 87 -2 -2 80 -56 181
-122 l184 -118 0 -144 0 -145 -65 -152 c-35 -83 -86 -218 -112 -300 -46 -143
-49 -147 -73 -142 -14 2 -135 28 -268 56 -134 28 -246 49 -248 47 -2 -2 106
-39 239 -83 133 -43 252 -82 264 -86 19 -7 21 -12 12 -41 -37 -128 -85 -429
-95 -596 -4 -62 -10 -112 -13 -112 -3 0 -83 -9 -177 -20 -94 -10 -251 -28
-350 -39 -98 -11 -307 -34 -464 -52 -157 -17 -287 -35 -290 -39 -3 -4 -14 -10
-25 -13 -19 -4 -19 -5 2 -6 12 0 23 -5 25 -10 2 -5 273 -39 603 -75 330 -37
618 -69 641 -72 l41 -6 7 -105 c11 -169 54 -443 90 -581 12 -45 12 -54 1 -58
-8 -3 -128 -43 -267 -89 -139 -46 -247 -84 -240 -84 6 -1 119 22 250 49 130
28 249 53 263 56 25 5 27 1 52 -84 15 -49 27 -93 27 -98 0 -5 -310 -8 -755 -6
l-755 2 0 -1870 0 -1870 425 0 425 0 0 695 0 695 320 0 c349 0 472 11 627 56
353 102 624 332 747 634 l32 78 130 -104 c71 -57 132 -104 135 -104 3 0 9 -69
12 -152 6 -153 14 -214 43 -341 l16 -68 -31 -58 c-40 -75 -40 -90 0 -29 17 27
34 48 38 48 3 0 19 -37 34 -83 101 -292 305 -591 554 -808 309 -271 689 -448
1083 -504 296 -42 743 -3 1036 91 121 38 363 152 431 203 l43 31 -180 361
c-179 356 -181 361 -203 346 -125 -82 -268 -142 -431 -181 -126 -31 -226 -41
-226 -23 0 22 51 472 54 483 3 6 50 14 118 18 133 8 338 38 492 72 60 13 115
24 122 24 10 0 120 -318 179 -518 4 -13 9 -22 11 -20 2 3 -21 119 -51 259 -30
140 -56 265 -58 277 -2 22 8 27 143 72 187 61 361 134 529 221 74 38 138 66
141 62 4 -5 73 -111 155 -238 81 -126 151 -234 156 -240 5 -5 -51 110 -126
256 l-135 266 38 21 c20 11 84 53 142 91 l105 71 3 -980 2 -980 425 0 425 0 2
930 3 931 244 -221 c134 -121 246 -220 248 -220 6 0 -55 69 -306 345 l-190
210 0 430 -1 430 51 77 50 78 91 0 90 0 185 -96 c101 -53 186 -94 188 -92 2 2
-60 44 -138 93 l-141 90 257 3 257 2 0 375 0 375 -215 0 c-118 0 -215 3 -215
7 0 18 54 183 60 183 4 0 123 -25 265 -55 142 -31 262 -54 266 -53 5 2 -107
40 -249 86 -141 46 -260 86 -263 90 -4 4 2 41 12 82 31 125 68 364 81 515 l11
143 31 6 c17 2 306 35 641 72 336 37 612 70 615 74 3 4 12 10 20 13 12 4 12 6
-2 6 -9 1 -18 5 -20 9 -1 5 -290 40 -641 79 -351 39 -640 73 -641 75 -2 1 -9
67 -15 146 -12 150 -49 386 -80 512 -10 41 -16 78 -12 82 3 4 122 44 264 90
142 45 255 84 250 85 -5 2 -125 -21 -266 -52 -141 -30 -261 -55 -265 -55 -5 0
-19 35 -32 78 -56 192 -161 447 -263 640 -46 89 -48 94 -30 107 10 7 118 78
239 157 122 79 221 144 220 146 -2 1 -118 -56 -258 -128 l-255 -130 -58 95
c-78 126 -238 339 -353 469 -51 57 -92 107 -92 111 0 3 80 95 177 203 289 321
624 694 657 732 49 55 17 27 -468 -411 -252 -228 -463 -416 -468 -417 -5 -2
-44 27 -86 66 -163 147 -406 328 -559 417 l-32 19 134 263 c74 145 132 263
130 263 -2 0 -17 -21 -33 -47 -39 -63 -281 -435 -285 -440 -2 -2 -60 26 -128
61 -163 85 -360 167 -539 227 -134 44 -145 50 -143 71 2 13 28 137 58 277 30
140 53 256 51 259 -2 2 -7 -7 -11 -20 -61 -209 -169 -518 -180 -518 -7 0 -52
9 -98 20 -128 31 -384 68 -513 76 -69 4 -117 11 -120 18 -2 6 -35 294 -72 639
-40 357 -74 633 -81 640 -8 8 -14 8 -22 0 -6 -6 -41 -276 -79 -615 l-68 -603
-1 643 -1 642 -725 0 -725 0 0 -864z m1590 -1499 l0 -1864 -87 -13 c-49 -7
-123 -26 -165 -42 l-78 -29 -45 36 c-25 21 -45 38 -45 39 0 0 7 55 15 121 8
65 15 125 15 132 0 10 30 13 125 13 l125 0 0 1134 0 1134 65 586 c36 322 65
593 65 601 0 8 2 15 5 15 3 0 5 -839 5 -1863z m381 908 c350 -37 663 -116 985
-248 830 -341 1523 -1015 1888 -1838 151 -340 252 -719 286 -1064 5 -60 13
-132 16 -158 l5 -49 -68 7 c-116 11 -113 9 -113 63 0 114 -44 386 -95 592
-272 1090 -1099 1990 -2170 2360 -251 86 -651 170 -818 170 -80 0 -85 4 -92
78 -4 37 -9 75 -11 85 -7 21 1 22 187 2z m89 -215 c243 -35 423 -77 637 -151
1014 -350 1807 -1176 2112 -2204 63 -210 131 -586 131 -722 l0 -44 -32 5 c-18
3 -80 11 -138 17 l-105 11 -18 142 c-61 489 -221 924 -488 1326 -434 653
-1087 1108 -1851 1289 -131 31 -373 71 -432 71 -41 0 -40 -4 -56 142 -16 149
-19 138 48 138 31 0 118 -9 192 -20z m-2058 -247 c4 -72 2 -90 -11 -101 -19
-16 -198 -122 -206 -122 -3 0 -5 34 -5 75 l0 75 -32 0 -32 0 23 16 c35 25 244
144 252 144 4 0 9 -39 11 -87z m2108 -64 c520 -90 999 -304 1400 -626 116 -93
326 -298 422 -413 398 -472 642 -1050 703 -1662 7 -68 6 -68 -18 -68 -32 0
-754 79 -784 85 -13 3 -25 15 -27 28 -31 145 -34 172 -20 188 26 29 16 67 -22
87 -14 8 -32 41 -53 103 -34 98 -103 255 -132 303 -14 23 -15 34 -7 52 16 35
-4 73 -42 81 -17 3 -36 15 -42 27 -21 41 -133 192 -195 263 -35 40 -63 75 -63
79 0 3 50 69 111 146 99 123 110 141 97 154 -13 13 -32 1 -158 -100 l-144
-115 -51 47 c-61 58 -191 157 -263 201 -39 25 -52 39 -52 57 0 35 -43 60 -76
45 -21 -9 -32 -7 -68 14 -51 30 -225 103 -317 134 -48 16 -69 28 -77 46 -15
32 -55 42 -85 22 -21 -14 -33 -13 -117 4 -51 11 -95 21 -97 22 -2 3 -93 806
-93 825 0 7 148 -9 270 -29z m-2100 -234 l0 -154 -57 -37 c-31 -20 -81 -54
-110 -75 -28 -21 -55 -39 -58 -39 -3 0 -5 76 -5 169 l0 169 108 65 c59 35 110
63 115 60 4 -2 7 -74 7 -158z m0 -635 c0 -247 -3 -450 -6 -450 -4 0 -50 35
-102 77 -52 42 -101 76 -109 76 -16 0 -19 103 -2 109 7 2 7 12 0 31 -14 36
-14 107 -1 107 6 0 28 -9 50 -20 22 -11 44 -20 49 -20 5 0 -17 56 -49 124 -56
118 -58 127 -57 197 l2 73 105 72 c58 41 108 73 113 74 4 0 7 -202 7 -450z
m-189 39 c16 -34 29 -62 27 -64 -2 -2 -18 3 -35 10 -31 13 -33 17 -33 65 0 27
2 50 5 50 3 0 19 -27 36 -61z m2254 -39 c70 -15 78 -31 54 -115 -10 -37 -20
-70 -23 -72 -10 -10 -138 22 -146 36 -4 9 -11 52 -15 95 l-8 79 44 -6 c24 -3
67 -11 94 -17z m252 -71 c135 -47 324 -140 333 -164 8 -21 -3 -48 -46 -116
l-23 -37 -103 52 c-57 28 -155 69 -218 90 -63 22 -116 40 -118 42 -8 6 38 148
50 156 20 12 30 10 125 -23z m-276 -196 c18 -3 29 -12 29 -22 0 -27 -16 -43
-36 -38 -11 3 -31 8 -46 11 -23 5 -28 12 -28 37 0 29 2 31 26 25 15 -4 39 -10
55 -13z m745 -34 c71 -45 233 -172 272 -212 l33 -34 -69 -56 -69 -55 -77 64
c-43 36 -118 92 -167 125 l-90 60 32 57 c32 58 54 82 74 82 6 0 33 -14 61 -31z
m-519 -35 c54 -20 137 -56 186 -80 83 -42 87 -46 76 -67 -6 -12 -13 -23 -14
-25 -2 -2 -47 18 -101 44 -55 26 -145 64 -202 84 -57 20 -103 40 -103 43 1 4
1 17 1 28 0 27 22 23 157 -27z m-2383 -140 c53 -67 96 -124 96 -128 0 -4 -28
-39 -63 -79 -34 -40 -79 -96 -100 -124 -21 -29 -41 -53 -43 -53 -2 0 -4 118
-4 262 0 145 4 258 9 253 4 -6 51 -65 105 -131z m2276 70 c126 -41 325 -136
423 -201 107 -71 218 -163 212 -174 -12 -19 -707 -571 -712 -565 -5 4 -112
931 -113 974 0 19 59 8 190 -34z m493 -126 c79 -53 227 -169 227 -178 0 -4 -9
-15 -19 -24 -18 -17 -22 -14 -102 50 -46 37 -111 85 -143 106 -33 21 -62 40
-64 42 -6 7 18 46 29 46 6 0 38 -19 72 -42z m-33 -553 c-272 -272 -499 -495
-503 -495 -5 0 -25 13 -45 30 -20 16 -47 38 -60 47 l-23 18 558 448 c307 246
560 447 563 447 3 0 -218 -223 -490 -495z m670 330 c82 -100 170 -232 170
-256 0 -17 -78 -77 -124 -95 -10 -4 -34 23 -74 83 -33 48 -87 122 -121 163
-33 41 -59 81 -56 87 2 7 26 40 52 72 l48 60 23 -22 c14 -12 50 -53 82 -92z
m-3290 -43 l0 -128 -57 -92 c-32 -50 -62 -91 -68 -91 -5 -1 -31 13 -57 29 -47
29 -48 31 -48 79 0 42 7 60 49 123 59 87 159 208 172 208 5 0 9 -56 9 -128z
m-1645 -322 c14 0 25 -2 25 -5 0 -3 -11 -43 -25 -90 -52 -179 -115 -548 -115
-671 0 -61 2 -59 -109 -69 -68 -7 -73 -6 -68 11 3 11 8 62 12 114 21 303 104
670 218 963 l32 82 3 -167 2 -168 25 0z m4723 207 c28 -34 78 -103 112 -152
55 -82 59 -91 43 -102 -28 -21 -40 -15 -67 32 -15 24 -60 88 -102 141 -70 90
-75 99 -63 120 7 13 15 24 19 24 4 0 29 -28 58 -63z m-58 -92 c119 -150 214
-321 283 -505 32 -87 67 -213 67 -244 0 -9 -93 -1 -372 30 -205 22 -428 47
-495 54 -68 7 -123 15 -123 17 0 5 572 723 577 723 1 0 30 -34 63 -75z m487
-83 c18 -11 114 -220 153 -330 42 -117 37 -132 -47 -155 -86 -24 -89 -23 -103
31 -19 67 -96 257 -131 321 -16 30 -29 59 -29 65 0 13 108 75 130 75 8 1 20
-3 27 -7z m-3507 -22 c0 -5 7 -10 15 -10 18 0 19 -14 5 -41 -12 -21 -27 -24
-49 -10 -12 8 -12 14 -1 40 12 30 30 42 30 21z m-185 -17 c19 -9 35 -21 35
-25 0 -5 -24 -59 -54 -121 -30 -62 -70 -157 -88 -212 -18 -55 -34 -102 -35
-104 -1 -2 -34 4 -73 14 -96 24 -100 33 -60 148 18 51 53 139 79 197 l47 105
54 6 c30 3 56 6 57 7 1 1 18 -6 38 -15z m-1115 -7 c0 -7 -9 -42 -20 -77 -55
-170 -110 -441 -126 -612 -4 -43 -10 -79 -13 -81 -3 -2 -51 -9 -106 -15 -55
-6 -115 -14 -132 -17 l-33 -5 0 49 c0 76 35 323 65 457 25 114 73 292 82 308
2 4 67 7 144 7 111 0 139 -3 139 -14z m910 4 c0 -5 -16 -45 -36 -87 -19 -43
-51 -123 -70 -178 -29 -83 -40 -103 -64 -117 -33 -19 -41 -59 -16 -87 12 -14
11 -30 -6 -111 -10 -52 -21 -96 -23 -99 -3 -2 -118 -16 -257 -32 -139 -15
-293 -32 -343 -38 -49 -6 -121 -14 -158 -17 l-68 -7 6 64 c25 239 107 608 156
702 9 16 41 17 444 17 282 0 435 -4 435 -10z m792 -2 c39 -32 418 -519 406
-523 -7 -2 -62 -9 -123 -15 -60 -6 -209 -22 -330 -36 -121 -13 -281 -31 -355
-39 -74 -8 -143 -17 -152 -19 -24 -5 -23 11 6 116 42 155 102 295 184 433 59
101 46 95 207 95 98 0 146 -4 157 -12z m400 -235 l247 -248 -45 -60 c-26 -33
-49 -61 -53 -62 -5 -1 -440 539 -480 597 -13 19 -11 20 35 20 l48 0 248 -247z
m334 165 c-4 -46 -10 -98 -14 -116 l-7 -34 -137 109 c-75 59 -137 111 -138
116 0 4 68 7 151 7 l152 0 -7 -82z m-1176 -8 c17 -9 15 -17 -31 -116 -28 -58
-65 -150 -82 -204 -32 -100 -43 -112 -77 -90 -12 7 -9 23 19 106 46 137 129
314 147 314 3 0 14 -4 24 -10z m3368 -97 c28 -60 66 -152 84 -206 28 -84 31
-99 18 -107 -35 -22 -45 -10 -78 93 -18 56 -55 147 -82 202 -45 91 -48 101
-33 113 9 6 22 12 28 12 7 0 35 -48 63 -107z m-1546 -184 c222 -62 394 -233
464 -464 25 -85 25 -277 0 -360 -70 -227 -230 -390 -451 -462 -67 -21 -98 -25
-195 -25 -98 0 -127 4 -195 26 -217 73 -371 227 -442 441 -22 68 -26 97 -26
200 0 103 4 132 26 200 81 246 292 425 546 465 74 11 187 3 273 -21z m-2192
-128 c72 -21 70 -16 49 -113 -10 -48 -15 -58 -33 -59 -11 0 -51 -3 -88 -8 -79
-8 -77 -12 -52 102 14 62 33 98 53 97 3 -1 35 -9 71 -19z m4114 6 c18 -13 45
-115 46 -170 0 -23 -3 -27 -22 -23 -13 3 -53 8 -91 11 -63 6 -67 8 -72 33 -3
15 -10 43 -15 63 -17 61 -15 64 53 81 80 20 80 20 101 5z m-3909 -91 c-13 -62
-15 -66 -45 -66 -28 0 -29 2 -23 33 12 64 20 75 48 69 23 -4 25 -8 20 -36z
m3675 -12 c7 -30 10 -57 8 -59 -9 -9 -58 9 -62 24 -17 61 -17 79 1 84 38 10
42 6 53 -49z m742 -186 c1011 -112 1838 -205 1838 -208 0 -3 -832 -4 -1850 -2
l-1850 2 0 38 c0 48 -32 177 -59 238 l-20 45 36 50 c23 30 43 47 53 45 8 -3
842 -96 1852 -208z m-3362 -295 c0 -58 25 -161 54 -227 l26 -59 -36 -43 c-23
-29 -43 -44 -58 -44 -20 0 -849 89 -976 105 -25 3 -369 41 -765 85 -396 44
-841 93 -990 110 -148 17 -423 48 -610 69 l-340 39 1848 1 1847 1 0 -37z
m-2637 -129 c25 -5 27 -9 27 -53 0 -55 24 -249 46 -371 27 -151 72 -322 119
-459 25 -73 44 -135 42 -137 -6 -7 -172 29 -184 40 -15 15 -68 182 -104 331
-38 158 -65 322 -78 475 -6 69 -13 140 -16 158 l-4 34 62 -7 c34 -3 74 -8 90
-11z m6922 -31 c-2 -27 -10 -97 -15 -158 -21 -212 -70 -451 -137 -667 l-36
-118 -89 0 c-48 0 -88 4 -88 8 0 5 11 42 25 83 85 247 165 648 165 825 0 58
-4 55 95 67 88 11 86 12 80 -40z m-6686 4 l95 -12 17 -135 c45 -355 143 -690
284 -971 19 -38 35 -71 35 -74 0 -2 -30 15 -67 38 -73 47 -202 107 -271 128
-50 14 -55 23 -100 154 -86 253 -172 682 -172 857 l0 38 43 -6 c23 -3 85 -11
136 -17z m6481 -25 c0 -172 -77 -567 -158 -807 l-37 -110 -152 -3 -152 -3 24
59 c79 194 152 489 182 734 l18 146 115 12 c63 6 120 13 125 15 29 10 35 3 35
-43z m-5927 -36 c213 -24 390 -45 392 -47 2 -3 13 -47 23 -99 17 -81 18 -97 6
-111 -25 -28 -17 -68 15 -87 23 -13 35 -32 52 -82 33 -102 87 -229 125 -297
29 -53 33 -65 22 -82 -18 -29 4 -70 42 -78 20 -3 36 -16 45 -33 22 -42 162
-227 213 -283 54 -57 62 -38 -80 -213 -90 -112 -99 -127 -86 -141 14 -13 30
-3 153 96 75 61 143 111 150 111 6 0 19 -8 28 -18 16 -17 12 -22 -59 -93 -42
-40 -108 -117 -149 -170 l-73 -97 -31 31 c-29 30 -31 30 -31 10 0 -44 -23 -73
-78 -98 -30 -14 -57 -23 -59 -21 -2 2 14 40 36 85 27 53 47 81 58 81 13 0 10
7 -12 30 -27 29 -53 41 -40 20 4 -6 -21 -69 -54 -140 -33 -72 -55 -130 -50
-130 5 0 41 16 80 36 39 19 73 33 76 31 2 -3 -12 -37 -31 -76 -42 -82 -45 -96
-17 -81 32 16 32 13 4 -45 -15 -30 -31 -55 -36 -55 -13 0 -280 265 -343 341
-36 43 -67 93 -84 138 -53 135 -128 247 -235 351 -141 136 -322 637 -378 1045
-31 219 -31 215 -5 215 13 0 198 -20 411 -44z m5627 25 c0 -44 -32 -263 -55
-371 -30 -143 -83 -330 -128 -446 l-34 -89 -442 -3 -441 -2 20 20 c22 22 25
46 10 70 -5 8 -5 19 0 25 17 20 108 231 141 324 24 69 38 95 54 101 35 13 46
60 21 89 -12 14 -12 25 0 81 7 36 14 74 14 85 1 47 3 48 387 91 445 50 453 51
453 25z m-880 -97 c0 -44 -31 -162 -46 -174 -11 -10 -30 -8 -86 5 -40 10 -75
19 -76 21 -2 1 4 36 13 77 l17 76 66 6 c37 3 74 8 82 9 8 2 18 4 23 5 4 0 7
-10 7 -25z m-4183 10 l60 -7 16 -71 c9 -39 13 -74 9 -78 -4 -3 -35 -14 -70
-23 -94 -24 -103 -15 -128 145 -6 39 -6 40 23 40 17 0 57 -3 90 -6z m3913 -24
c0 -5 -5 -32 -11 -60 -10 -46 -13 -51 -33 -46 -11 3 -25 6 -29 6 -5 0 -6 15
-2 33 14 68 12 66 68 76 4 0 7 -3 7 -9z m-3696 -17 c12 -46 17 -83 9 -83 -4 0
-18 -3 -29 -6 -18 -5 -22 0 -28 33 -4 21 -9 46 -12 56 -4 13 1 17 25 17 20 0
31 -6 35 -17z m576 -48 c228 -25 425 -48 437 -50 20 -5 -10 -46 -264 -365
-240 -301 -289 -358 -301 -347 -32 26 -139 176 -197 276 -95 164 -182 382
-200 502 l-7 46 59 -8 c32 -4 245 -29 473 -54z m2993 -35 c-48 -188 -136 -380
-252 -551 -97 -143 -103 -149 -144 -149 -34 0 -43 10 -307 340 -150 188 -271
342 -269 344 6 4 983 113 990 109 3 -1 -5 -43 -18 -93z m-793 -314 c166 -208
298 -381 292 -385 -5 -3 -11 -14 -13 -24 -3 -12 -100 78 -347 326 l-342 342
47 63 c26 34 51 61 54 60 4 -2 142 -173 309 -382z m-2713 174 c17 -54 54 -146
82 -204 46 -99 48 -107 31 -116 -10 -6 -23 -10 -28 -10 -14 0 -107 204 -144
313 -27 83 -30 100 -17 108 33 21 44 9 76 -91z m3583 90 c13 -8 11 -22 -18
-105 -38 -113 -131 -315 -144 -315 -5 0 -18 4 -28 10 -17 9 -16 16 30 112 26
57 62 144 79 193 17 50 33 96 36 103 5 14 24 15 45 2z m-3722 -134 c18 -56 58
-153 88 -215 30 -62 54 -116 54 -120 0 -11 -117 -71 -139 -71 -19 0 -32 20
-75 113 -76 159 -131 320 -118 343 9 16 104 52 142 53 10 0 25 -31 48 -103z
m3903 87 c78 -22 85 -35 60 -116 -27 -89 -75 -205 -121 -297 -31 -62 -45 -80
-61 -80 -27 0 -139 61 -139 75 0 6 15 40 34 75 38 73 120 278 131 328 8 37 14
38 96 15z m-2467 -39 c33 -26 59 -49 56 -53 -13 -16 -1078 -873 -1102 -886 -7
-4 210 216 482 489 272 273 497 496 499 496 2 0 31 -21 65 -46z m854 -112 l43
-37 -22 -190 c-12 -104 -23 -192 -25 -194 -2 -2 -43 2 -91 8 -49 7 -131 16
-183 19 l-95 7 -3 173 -2 172 25 0 c45 0 168 29 230 54 33 13 65 25 70 25 6 1
29 -16 53 -37z m-853 -281 c8 -74 14 -135 12 -136 -1 -1 -57 -16 -125 -33 -67
-18 -164 -48 -215 -68 -83 -33 -298 -136 -348 -167 -16 -10 -23 -8 -45 14
l-26 26 74 60 c40 33 201 162 358 288 l285 227 7 -38 c4 -22 14 -99 23 -173z
m1253 -38 c432 -347 405 -323 391 -340 -7 -7 -24 -23 -39 -33 l-27 -20 -59 42
c-75 52 -146 88 -259 131 -92 35 -251 81 -318 93 -20 3 -39 10 -42 14 -9 15
30 360 41 360 2 0 143 -111 312 -247z m-2363 29 c16 -26 63 -89 103 -141 68
-87 73 -96 61 -117 -7 -13 -15 -24 -19 -24 -10 0 -103 117 -169 214 -56 82
-59 90 -43 102 27 21 35 17 67 -34z m3195 33 c14 -16 14 -16 -54 -117 -49 -74
-53 -78 -89 -78 l-39 0 32 43 c18 23 51 70 73 105 42 64 56 73 77 47z m-3292
-142 c33 -49 87 -122 121 -163 33 -41 61 -78 61 -81 0 -8 -100 -133 -108 -136
-14 -4 -198 228 -249 314 -15 27 -22 50 -18 62 5 17 107 90 127 91 4 0 34 -39
66 -87z m3457 49 c59 -37 75 -62 57 -90 -6 -9 -37 -12 -115 -10 l-107 3 45 68
c25 37 49 67 53 66 4 0 34 -17 67 -37z m-3005 -384 c-16 -13 -27 -15 -40 -8
-32 17 -34 32 -10 52 23 18 23 18 47 -4 l24 -23 -21 -17z m2413 -45 c-21 -18
-57 -47 -81 -64 l-44 -31 27 53 c15 30 50 75 78 100 l52 47 3 -37 c3 -31 -1
-40 -35 -68z m-2527 -7 c10 -8 17 -16 14 -18 -3 -2 -36 -28 -73 -58 -68 -53
-69 -53 -88 -33 -20 20 -20 20 43 71 69 56 75 59 104 38z m2550 -305 c-8 -9
-35 -27 -61 -41 -56 -30 -64 -26 -111 57 l-34 62 77 52 c43 28 92 62 108 75
l30 23 3 -106 c2 -82 -1 -109 -12 -122z m-174 -93 c-3 -12 -38 -36 -93 -64
l-89 -44 61 121 61 122 33 -58 c18 -33 30 -66 27 -77z m-4652 24 c96 -26 196
-70 184 -81 -5 -5 -58 -41 -118 -80 -61 -39 -106 -71 -102 -71 5 0 66 30 137
67 l129 67 44 -43 c48 -47 89 -123 105 -192 13 -57 13 -211 0 -268 -38 -165
-161 -274 -374 -332 -67 -18 -115 -23 -292 -27 l-213 -4 0 497 0 498 213 -6
c166 -4 228 -9 287 -25z m4840 -12 l0 -30 368 0 368 0 63 -64 c47 -48 62 -69
57 -82 -6 -17 -5 -17 14 1 20 18 20 18 20 -48 l0 -65 -87 -82 c-387 -362 -917
-629 -1459 -734 -136 -26 -341 -52 -349 -44 -5 5 83 819 88 825 2 1 46 11 97
22 84 17 96 18 117 4 30 -20 70 -10 85 22 10 23 53 45 86 45 8 0 30 -11 48
-25 l33 -26 26 51 c24 47 30 52 137 104 93 44 116 52 135 43 29 -13 73 14 73
46 0 14 13 30 33 44 43 29 47 28 47 -7z m890 -75 c0 -25 -2 -45 -5 -45 -12 0
-75 73 -69 81 3 5 21 9 40 9 34 0 34 0 34 -45z m-1931 15 c47 -5 89 -14 95
-20 6 -6 4 -61 -7 -167 -76 -700 -219 -1980 -222 -1990 -2 -7 -14 -13 -25 -13
-20 0 -20 1 -20 1100 l0 1100 48 0 c26 0 85 -5 131 -10z m-2209 -536 c-22 -68
-40 -130 -40 -139 0 -8 -3 -15 -6 -15 -7 0 -134 108 -211 177 l-41 38 -6 155
c-3 85 -12 184 -19 220 l-13 65 188 -189 188 -188 -40 -124z m2452 480 c66
-22 78 -29 87 -55 20 -57 -12 -76 -158 -96 l-44 -6 7 74 c8 81 14 109 24 109
4 0 41 -12 84 -26z m-789 9 c3 -5 8 -44 12 -87 l8 -79 -44 6 c-142 20 -179 41
-156 87 8 16 35 32 87 51 84 31 87 32 93 22z m-1493 -114 c-59 -99 -64 -97
-14 4 40 80 57 104 62 89 1 -5 -20 -47 -48 -93z m2484 20 c-8 -14 -41 -10 -58
7 -27 26 -18 33 24 17 22 -9 37 -20 34 -24z m-1288 -47 c6 -4 16 -17 23 -29
15 -30 55 -39 84 -20 21 14 33 13 117 -4 51 -11 95 -21 96 -22 6 -6 94 -820
90 -825 -20 -19 -441 56 -626 112 -210 63 -290 96 -290 117 0 27 52 174 85
239 78 156 225 333 339 408 51 33 63 37 82 24z m2747 -469 c-349 -288 -832
-530 -1278 -641 -186 -47 -467 -92 -570 -92 -53 0 -55 1 -55 28 1 42 26 241
31 245 2 2 67 11 144 20 597 73 1141 312 1608 707 51 43 103 90 117 105 l25
27 3 -188 2 -188 -27 -23z m-4292 35 c67 -58 119 -110 119 -120 0 -38 -23
-168 -29 -168 -4 0 -61 44 -127 98 -86 71 -118 104 -117 118 10 76 27 174 30
174 2 0 58 -46 124 -102z m4315 -264 c-7 -17 -186 -141 -318 -220 -455 -271
-960 -434 -1501 -485 -70 -6 -129 -10 -131 -8 -8 9 17 165 27 171 7 4 35 8 64
8 179 0 578 84 848 178 317 109 678 306 940 510 l70 54 3 -98 c1 -53 1 -103
-2 -110z m-3119 -68 c217 -76 489 -136 687 -153 88 -7 79 6 96 -145 16 -151
18 -144 -37 -140 -194 11 -507 69 -710 131 -215 66 -207 61 -216 112 -8 42 -3
145 10 217 4 25 10 32 22 28 9 -2 75 -25 148 -50z m-71 -306 c199 -68 470
-128 679 -150 61 -6 129 -14 152 -16 l42 -5 6 -67 c4 -37 9 -75 11 -84 7 -23
-4 -23 -189 -2 -189 20 -341 48 -522 94 -202 52 -228 62 -243 93 -16 33 -42
167 -33 167 4 0 47 -14 97 -30z m91 -295 c2 -1 -2 -28 -9 -60 l-11 -58 -20 24
c-17 22 -67 112 -67 123 0 3 94 -22 107 -29z m255 -60 c179 -35 404 -65 496
-65 33 0 54 -5 57 -12 8 -24 56 -480 51 -485 -3 -3 -51 2 -108 12 -195 32
-389 111 -518 211 -56 43 -161 147 -198 197 l-20 28 25 74 c14 41 29 75 33 75
5 0 87 -16 182 -35z"/>
<path d="M7981 8427 c12 -27 10 -30 -71 -112 -61 -62 -89 -83 -102 -79 -25 8
-23 2 13 -32 26 -24 30 -26 25 -9 -5 16 9 36 64 90 81 80 76 88 57 -97 -7 -65
-10 -118 -7 -118 3 0 46 41 95 90 65 66 95 89 109 86 15 -4 13 1 -10 25 -33
34 -34 35 -27 9 4 -14 -11 -36 -55 -82 -33 -35 -63 -60 -66 -57 -3 2 1 61 8
129 l13 125 -29 30 -29 30 12 -28z"/>
<path d="M8207 8201 c5 -18 -10 -37 -79 -107 -66 -66 -89 -83 -104 -78 -10 4
12 -25 51 -65 38 -39 76 -71 85 -71 8 1 26 7 40 16 25 14 25 14 -10 9 -29 -5
-41 -1 -72 25 -21 17 -38 39 -38 49 0 9 17 34 38 54 l38 37 33 -34 c21 -22 31
-41 28 -50 -9 -22 -5 -20 27 13 27 28 27 28 4 24 -16 -3 -32 5 -52 26 l-30 31
39 40 39 40 39 -37 c27 -28 37 -44 34 -60 -5 -27 5 -30 24 -7 11 13 2 26 -64
92 -52 52 -74 69 -70 53z"/>
<path d="M5975 6719 c-93 -19 -194 -76 -271 -153 -90 -90 -138 -184 -161 -312
-15 -84 -15 -98 0 -180 23 -127 72 -221 161 -310 311 -311 845 -156 947 276
43 182 -16 385 -151 521 -110 111 -220 159 -375 165 -55 1 -122 -1 -150 -7z
m242 -381 c50 -33 93 -114 93 -173 0 -59 -43 -140 -93 -173 -31 -20 -55 -27
-106 -30 -87 -5 -143 23 -186 93 -63 101 -28 238 75 292 62 34 159 30 217 -9z"/>
<path d="M3971 4424 c-21 -15 -23 -21 -16 -73 3 -31 7 -76 8 -101 2 -43 1 -45
-29 -48 -52 -5 -84 54 -59 113 6 16 2 14 -23 -8 -34 -32 -35 -26 33 -101 40
-43 75 -47 110 -11 30 29 30 37 8 121 -13 48 -15 69 -7 82 35 55 108 -11 83
-75 l-10 -28 29 28 c28 27 29 30 14 47 -10 10 -28 30 -41 44 -27 30 -65 34
-100 10z"/>
<path d="M7939 4222 c-9 -9 -29 -27 -43 -39 -30 -25 -34 -67 -10 -102 15 -21
21 -23 73 -16 31 3 76 7 101 8 43 2 45 1 48 -29 5 -52 -45 -80 -108 -60 l-25
8 28 -30 c27 -28 30 -29 47 -14 10 10 30 25 45 35 51 36 55 103 8 134 -23 15
-30 15 -100 -2 -54 -14 -79 -16 -91 -8 -55 34 11 106 76 82 l27 -10 -29 30
c-17 17 -30 31 -30 30 -1 0 -8 -8 -17 -17z"/>
<path d="M227 6464 c18 -7 36 -22 41 -31 8 -15 40 -102 189 -523 18 -49 29
-67 39 -58 3 4 36 93 73 199 l68 192 17 -44 c9 -24 40 -111 69 -193 29 -82 58
-151 64 -153 6 -2 18 15 26 39 8 24 47 138 87 253 96 280 104 299 143 318 31
15 30 16 -68 16 -94 0 -101 -4 -41 -23 15 -5 18 -13 13 -44 -10 -59 -129 -394
-138 -385 -13 14 -129 354 -132 387 -2 26 3 33 33 48 l35 18 -123 0 c-80 0
-121 -4 -117 -10 3 -5 12 -10 19 -10 21 0 44 -32 70 -96 l24 -59 -50 -145
c-28 -80 -52 -146 -53 -148 -3 -3 -132 366 -140 398 -6 29 1 41 35 57 21 10 3
12 -95 12 -112 -1 -118 -2 -88 -15z"/>
<path d="M11135 6470 c-4 -6 6 -10 23 -10 60 0 62 -10 62 -298 0 -258 0 -261
-22 -276 -12 -9 -33 -16 -46 -16 -13 0 -20 -4 -17 -10 4 -6 95 -10 239 -10
l234 0 10 28 c36 94 44 123 37 130 -4 4 -10 2 -12 -5 -11 -31 -66 -95 -90
-104 -14 -5 -74 -8 -132 -7 l-106 3 -3 133 -3 132 96 0 c105 0 135 -14 135
-65 0 -14 5 -25 10 -25 6 0 10 44 10 111 0 71 -4 108 -10 104 -5 -3 -10 -15
-10 -26 0 -10 -9 -28 -20 -39 -17 -17 -33 -20 -115 -20 l-95 0 0 120 0 120
111 0 c61 0 119 -5 130 -11 11 -6 29 -29 39 -52 l19 -42 -2 70 -2 70 -232 3
c-149 1 -234 -1 -238 -8z"/>
<path d="M10280 3130 l0 -1870 425 0 425 0 0 1870 0 1870 -425 0 -425 0 0
-1870z"/>
<path d="M6034 1001 c-139 -34 -186 -183 -86 -273 21 -19 78 -57 128 -86 120
-68 144 -93 144 -146 0 -90 -96 -132 -196 -87 -50 23 -82 61 -97 118 -6 24
-15 43 -19 43 -4 0 -8 -47 -8 -105 0 -58 3 -105 6 -105 4 0 12 8 19 17 12 16
16 16 67 0 75 -23 168 -22 217 3 106 54 129 183 46 263 -19 18 -81 59 -139 90
-58 32 -114 69 -125 84 -45 56 -11 135 63 149 81 15 162 -44 186 -134 6 -23
15 -40 20 -37 11 7 14 198 3 209 -4 4 -15 -3 -24 -15 -16 -21 -17 -21 -65 -6
-69 22 -104 26 -140 18z"/>
</g>
</svg>
